<svg width="32" height="32" viewBox="0 0 32 32" fill="none" xmlns="http://www.w3.org/2000/svg">
<style>
</style>
<g id="Frame_1" clip-path="url(#clip0_1676_596)">
<g id="capture_animated">
<path id="Rectangle_71__Stroke_" transform="translate(2 21)" d="M4 7C2.89543 7 2 6.10457 2 5V1C2 0.447715 1.55228 0 1 0C0.447715 0 4.26975e-08 0.447715 9.53674e-08 1L4.76837e-07 5L0.00488329 5.20605C0.108653 7.2512 1.7488 8.89135 3.79395 8.99512L4 9H8C8.55228 9 9 8.55228 9 8C9 7.44772 8.55228 7 8 7H4Z" fill="black"/>
<path id="Rectangle_71__Stroke__2" transform="translate(21 21)" fill-rule="evenodd" clip-rule="evenodd" d="M5 9H1C0.447715 9 0 8.55228 0 8C0 7.44772 0.447715 7 1 7H5C6.10457 7 7 6.10457 7 5V1C7 0.447715 7.44772 0 8 0C8.55228 0 9 0.447715 9 1V5C9 7.14004 7.31944 8.88789 5.20605 8.99512L5 9Z" fill="black"/>
<path id="Rectangle_71__Stroke__3" transform="translate(21 2)" fill-rule="evenodd" clip-rule="evenodd" d="M9 4V8C9 8.55229 8.55228 9 8 9C7.44772 9 7 8.55229 7 8V4C7 2.89543 6.10457 2 5 2H1C0.447715 2 0 1.55228 0 1C0 0.447715 0.447715 0 1 0H5C7.20914 0 9 1.79086 9 4Z" fill="black"/>
<path id="Rectangle_71__Stroke__4" transform="translate(2 2)" fill-rule="evenodd" clip-rule="evenodd" d="M2 8C2 8.55228 1.55228 9 1 9C0.447715 9 0 8.55228 0 8V4C0 1.79086 1.79086 0 4 0H8C8.55228 0 9 0.447715 9 1C9 1.55228 8.55228 2 8 2H4C2.89543 2 2 2.89543 2 4L2 8Z" fill="black"/>
<line id="Line_10" transform="matrix(0 -1 1 0 9 18)" x1="1" y1="-1" x2="3" y2="-1" stroke="black" stroke-width="2" stroke-linecap="round">
<animate attributeName="x2" values="5; 6.999; 6.999; 5; 9; 5" keyTimes="0; 0.2499; 0.25; 0.5; 0.75; 1" dur="1.500426s" calcMode="linear" repeatCount="indefinite" />

</line>
<line id="Line_11" transform="matrix(0 -1 1 0 13 23)" x1="1" y1="-1" x2="13" y2="-1" stroke="black" stroke-width="2" stroke-linecap="round">
<animate attributeName="x2" values="15; 11.001; 11; 17; 5; 15" keyTimes="0; 0.2499; 0.25; 0.5; 0.75; 1" dur="1.500426s" calcMode="linear" repeatCount="indefinite" />

</line>
<line id="Line_12" transform="matrix(0 -1 1 0 17 20)" x1="1" y1="-1" x2="7" y2="-1" stroke="black" stroke-width="2" stroke-linecap="round">
<animate attributeName="x2" values="9; 15; 14.997; 5; 11; 9" keyTimes="0; 0.2499; 0.25; 0.5; 0.75; 1" dur="1.500426s" calcMode="linear" repeatCount="indefinite" />

</line>
<line id="Line_13" transform="matrix(0 -1 1 0 21 23)" x1="1" y1="-1" x2="13" y2="-1" stroke="black" stroke-width="2" stroke-linecap="round">
<animate attributeName="x2" values="15; 7; 7.002; 13; 5; 15" keyTimes="0; 0.2499; 0.25; 0.5; 0.75; 1" dur="1.500426s" calcMode="linear" repeatCount="indefinite" />

</line>
<line id="Line_14" transform="matrix(0 -1 1 0 25 18)" x1="1" y1="-1" x2="3" y2="-1" stroke="black" stroke-width="2" stroke-linecap="round">
<animate attributeName="x2" values="5; 7; 7; 5; 9; 5" keyTimes="0; 0.2499; 0.25; 0.5; 0.75; 1" dur="1.500426s" calcMode="linear" repeatCount="indefinite" />

</line>
</g>
</g>
<defs>
<clipPath id="clip0_1676_596">
<rect width="32" height="32" fill="white"/>
</clipPath>
</defs>
</svg>
