<svg width="32" height="32" viewBox="0 0 32 32" fill="none" xmlns="http://www.w3.org/2000/svg">
<style>
@keyframes kf_Line_10__Stroke__transform_0 {
  0% {
    animation-timing-function: cubic-bezier(0.5, 0, 0.5, 1);
    transform: translateX(7px) translateY(18px) translate(1px, -2px) scaleX(1) scaleY(1) translate(-1px, 2px) rotate(-1.571rad) skewX(0rad);
  }
  25% {
    animation-timing-function: cubic-bezier(0.5, 0, 0.5, 1);
    transform: translateX(7px) translateY(18px) translate(1px, -2px) scaleX(1) scaleY(1.2) translate(-1px, 2px) rotate(-1.571rad) skewX(0rad);
  }
  50% {
    animation-timing-function: cubic-bezier(0.5, 0, 0.5, 1);
    transform: translateX(7px) translateY(18px) translate(1px, -2px) scaleX(1) scaleY(1) translate(-1px, 2px) rotate(-1.571rad) skewX(0rad);
  }
  75% {
    animation-timing-function: cubic-bezier(0.5, 0, 0.5, 1);
    transform: translateX(7px) translateY(18px) translate(1px, -2px) scaleX(1) scaleY(1.3) translate(-1px, 2px) rotate(-1.571rad) skewX(0rad);
  }
  100% {
    transform: translateX(7px) translateY(18px) translate(1px, -2px) scaleX(1) scaleY(1) translate(-1px, 2px) rotate(-1.571rad) skewX(0rad);
  }
}
#Line_10__Stroke_ {
  transform-origin: 0 0;
  animation: kf_Line_10__Stroke__transform_0 1.500426s linear infinite;
}
@keyframes kf_Line_11__Stroke__transform_0 {
  0% {
    animation-timing-function: cubic-bezier(0.5, 0, 0.5, 1);
    transform: translateX(11px) translateY(23px) translate(1px, -7px) scaleX(1) scaleY(1) translate(-1px, 7px) rotate(-1.571rad) skewX(0rad);
  }
  25% {
    animation-timing-function: cubic-bezier(0.5, 0, 0.5, 1);
    transform: translateX(11px) translateY(23px) translate(1px, -7px) scaleX(1) scaleY(1.2) translate(-1px, 7px) rotate(-1.571rad) skewX(0rad);
  }
  50% {
    animation-timing-function: cubic-bezier(0.5, 0, 0.5, 1);
    transform: translateX(11px) translateY(23px) translate(1px, -7px) scaleX(1) scaleY(0.8) translate(-1px, 7px) rotate(-1.571rad) skewX(0rad);
  }
  75% {
    animation-timing-function: cubic-bezier(0.5, 0, 0.5, 1);
    transform: translateX(11px) translateY(23px) translate(1px, -7px) scaleX(1) scaleY(0.5) translate(-1px, 7px) rotate(-1.571rad) skewX(0rad);
  }
  100% {
    transform: translateX(11px) translateY(23px) translate(1px, -7px) scaleX(1) scaleY(1) translate(-1px, 7px) rotate(-1.571rad) skewX(0rad);
  }
}
#Line_11__Stroke_ {
  transform-origin: 0 0;
  animation: kf_Line_11__Stroke__transform_0 1.500426s linear infinite;
}
@keyframes kf_Line_12__Stroke__transform_0 {
  0% {
    animation-timing-function: cubic-bezier(0.5, 0, 0.5, 1);
    transform: translateX(15px) translateY(20px) translate(1px, -4px) scaleX(1) scaleY(1) translate(-1px, 4px) rotate(-1.571rad) skewX(0rad);
  }
  24.99% {
    animation-timing-function: cubic-bezier(0.5, 0, 0.5, 1);
    transform: translateX(15px) translateY(20px) translate(1px, -4px) scaleX(1) scaleY(1.4) translate(-1px, 4px) rotate(-1.571rad) skewX(0rad);
  }
  50% {
    animation-timing-function: cubic-bezier(0.5, 0, 0.5, 1);
    transform: translateX(15px) translateY(20px) translate(1px, -4px) scaleX(1) scaleY(0.6) translate(-1px, 4px) rotate(-1.571rad) skewX(0rad);
  }
  75% {
    animation-timing-function: cubic-bezier(0.5, 0, 0.5, 1);
    transform: translateX(15px) translateY(20px) translate(1px, -4px) scaleX(1) scaleY(1.7) translate(-1px, 4px) rotate(-1.571rad) skewX(0rad);
  }
  100% {
    transform: translateX(15px) translateY(20px) translate(1px, -4px) scaleX(1) scaleY(1) translate(-1px, 4px) rotate(-1.571rad) skewX(0rad);
  }
}
#Line_12__Stroke_ {
  transform-origin: 0 0;
  animation: kf_Line_12__Stroke__transform_0 1.500426s linear infinite;
}
@keyframes kf_Line_13__Stroke__transform_0 {
  0% {
    animation-timing-function: cubic-bezier(0.5, 0, 0.5, 1);
    transform: translateX(19px) translateY(23px) translate(1px, -7px) scaleX(1) scaleY(1) translate(-1px, 7px) rotate(-1.571rad) skewX(0rad);
  }
  24.99% {
    animation-timing-function: cubic-bezier(0.5, 0, 0.5, 1);
    transform: translateX(19px) translateY(23px) translate(1px, -7px) scaleX(1) scaleY(0.4) translate(-1px, 7px) rotate(-1.571rad) skewX(0rad);
  }
  50% {
    animation-timing-function: cubic-bezier(0.5, 0, 0.5, 1);
    transform: translateX(19px) translateY(23px) translate(1px, -7px) scaleX(1) scaleY(1.1) translate(-1px, 7px) rotate(-1.571rad) skewX(0rad);
  }
  75% {
    animation-timing-function: cubic-bezier(0.5, 0, 0.5, 1);
    transform: translateX(19px) translateY(23px) translate(1px, -7px) scaleX(1) scaleY(0.6) translate(-1px, 7px) rotate(-1.571rad) skewX(0rad);
  }
  100% {
    transform: translateX(19px) translateY(23px) translate(1px, -7px) scaleX(1) scaleY(1) translate(-1px, 7px) rotate(-1.571rad) skewX(0rad);
  }
}
#Line_13__Stroke_ {
  transform-origin: 0 0;
  animation: kf_Line_13__Stroke__transform_0 1.500426s linear infinite;
}
@keyframes kf_Line_14__Stroke__transform_0 {
  0% {
    animation-timing-function: cubic-bezier(0.5, 0, 0.5, 1);
    transform: translateX(23px) translateY(18px) translate(1px, -2px) scaleX(1) scaleY(1) translate(-1px, 2px) rotate(-1.571rad) skewX(0rad);
  }
  24.99% {
    animation-timing-function: cubic-bezier(0.5, 0, 0.5, 1);
    transform: translateX(23px) translateY(18px) translate(1px, -2px) scaleX(1) scaleY(2.05) translate(-1px, 2px) rotate(-1.571rad) skewX(0rad);
  }
  50% {
    animation-timing-function: cubic-bezier(0.5, 0, 0.5, 1);
    transform: translateX(23px) translateY(18px) translate(1px, -2px) scaleX(1) scaleY(1.03) translate(-1px, 2px) rotate(-1.571rad) skewX(0rad);
  }
  75% {
    animation-timing-function: cubic-bezier(0.5, 0, 0.5, 1);
    transform: translateX(23px) translateY(18px) translate(1px, -2px) scaleX(1) scaleY(1.27) translate(-1px, 2px) rotate(-1.571rad) skewX(0rad);
  }
  100% {
    transform: translateX(23px) translateY(18px) translate(1px, -2px) scaleX(1) scaleY(1) translate(-1px, 2px) rotate(-1.571rad) skewX(0rad);
  }
}
#Line_14__Stroke_ {
  transform-origin: 0 0;
  animation: kf_Line_14__Stroke__transform_0 1.500426s linear infinite;
}
</style>
<g id="Frame_1" clip-path="url(#clip0_1676_596)">
<g id="capture_animated">
<path id="Rectangle_71__Stroke_" transform="translate(2 21)" d="M4 7C2.89543 7 2 6.10457 2 5V1C2 0.447715 1.55228 0 1 0C0.447715 0 4.26975e-08 0.447715 9.53674e-08 1L4.76837e-07 5L0.00488329 5.20605C0.108653 7.2512 1.7488 8.89135 3.79395 8.99512L4 9H8C8.55228 9 9 8.55228 9 8C9 7.44772 8.55228 7 8 7H4Z" fill="black"/>
<path id="Rectangle_71__Stroke__2" transform="translate(21 21)" fill-rule="evenodd" clip-rule="evenodd" d="M5 9H1C0.447715 9 0 8.55228 0 8C0 7.44772 0.447715 7 1 7H5C6.10457 7 7 6.10457 7 5V1C7 0.447715 7.44772 0 8 0C8.55228 0 9 0.447715 9 1V5C9 7.14004 7.31944 8.88789 5.20605 8.99512L5 9Z" fill="black"/>
<path id="Rectangle_71__Stroke__3" transform="translate(21 2)" fill-rule="evenodd" clip-rule="evenodd" d="M9 4V8C9 8.55229 8.55228 9 8 9C7.44772 9 7 8.55229 7 8V4C7 2.89543 6.10457 2 5 2H1C0.447715 2 0 1.55228 0 1C0 0.447715 0.447715 0 1 0H5C7.20914 0 9 1.79086 9 4Z" fill="black"/>
<path id="Rectangle_71__Stroke__4" transform="translate(2 2)" fill-rule="evenodd" clip-rule="evenodd" d="M2 8C2 8.55228 1.55228 9 1 9C0.447715 9 0 8.55228 0 8V4C0 1.79086 1.79086 0 4 0H8C8.55228 0 9 0.447715 9 1C9 1.55228 8.55228 2 8 2H4C2.89543 2 2 2.89543 2 4L2 8Z" fill="black"/>
<path id="Line_10__Stroke_" transform="matrix(0 -1 1 0 7 18)" d="M4 0V2H0V0H4Z" fill="black"/>
<path id="Line_11__Stroke_" transform="matrix(0 -1 1 0 11 23)" d="M14 0V2H0V0H14Z" fill="black"/>
<path id="Line_12__Stroke_" transform="matrix(0 -1 1 0 15 20)" d="M8 0V2H0V0H8Z" fill="black"/>
<path id="Line_13__Stroke_" transform="matrix(0 -1 1 0 19 23)" d="M14 0V2H0V0H14Z" fill="black"/>
<path id="Line_14__Stroke_" transform="matrix(0 -1 1 0 23 18)" d="M4 0V2H0V0H4Z" fill="black"/>
</g>
</g>
<defs>
<clipPath id="clip0_1676_596">
<rect width="32" height="32" fill="white"/>
</clipPath>
</defs>
</svg>
